<svg xmlns="http://www.w3.org/2000/svg" viewBox="0 0 84.11 81.4"><g id="Layer_2" data-name="Layer 2"><g id="Layer_1-2" data-name="Layer 1"><path d="M21.5,64c2.78-4.4,5.39-8.78,8.25-13C41.7,33.33,56,17.86,73.36,5.36,76,3.46,78.78,1.75,81.59.12a2.25,2.25,0,0,1,2.18.45,2.91,2.91,0,0,1,.09,2.54,11,11,0,0,1-2.65,2.42C58,24,39.79,46.29,27.77,73.59c-1.44,3.25-5.55,5.37-8.59,7.8-.2.16-2.25-1.26-2.71-2.27-2.74-6.05-5-12.35-8-18.24A46.85,46.85,0,0,0,1.13,51.2c-1.7-1.85-1.43-2.81.48-3.87,5.87-3.26,8.76-2.62,12.64,3.06A69.26,69.26,0,0,1,18.2,57.3C19.42,59.61,20.51,62,21.5,64Z"/></g></g></svg>