<svg xmlns="http://www.w3.org/2000/svg" viewBox="0 0 76.41 73.96"><g id="Layer_2" data-name="Layer 2"><g id="Layer_1-2" data-name="Layer 1"><path d="M19.53,58.16c2.53-4,4.9-8,7.5-11.82A162.26,162.26,0,0,1,66.65,4.87c2.4-1.72,4.92-3.28,7.47-4.76a2,2,0,0,1,2,.41,2.61,2.61,0,0,1,.08,2.31A10.14,10.14,0,0,1,73.78,5c-21.12,16.73-37.63,37-48.56,61.82-1.3,3-5,4.88-7.79,7.09A5.09,5.09,0,0,1,15,71.88c-2.49-5.49-4.5-11.22-7.26-16.57A41.83,41.83,0,0,0,1,46.52C-.52,44.83-.27,44,1.46,43c5.33-3,8-2.38,11.49,2.78a61.65,61.65,0,0,1,3.58,6.28C17.64,54.16,18.63,56.32,19.53,58.16Z"/></g></g></svg>