<svg xmlns="http://www.w3.org/2000/svg" viewBox="0 0 42.06 40.7"><g id="Layer_2" data-name="Layer 2"><g id="Layer_1-2" data-name="Layer 1"><path d="M10.75,32c1.39-2.2,2.7-4.39,4.12-6.5A89.35,89.35,0,0,1,36.68,2.68C38,1.73,39.39.87,40.79.06a1.13,1.13,0,0,1,1.09.22,1.48,1.48,0,0,1,0,1.28A5.54,5.54,0,0,1,40.6,2.77a88.62,88.62,0,0,0-26.72,34c-.71,1.63-2.77,2.69-4.29,3.91a2.79,2.79,0,0,1-1.35-1.14c-1.38-3-2.48-6.18-4-9.12A22.85,22.85,0,0,0,.56,25.6c-.85-.93-.71-1.4.24-1.93C3.74,22,5.18,22.36,7.13,25.19a38.06,38.06,0,0,1,2,3.46C9.71,29.81,10.25,31,10.75,32Z"/></g></g></svg>