<svg xmlns="http://www.w3.org/2000/svg" viewBox="0 0 33.85 32.76"><g id="Layer_2" data-name="Layer 2"><g id="Layer_1-2" data-name="Layer 1"><path d="M8.65,25.76C9.77,24,10.82,22.23,12,20.53A71.81,71.81,0,0,1,29.52,2.16,37,37,0,0,1,32.83.05a.91.91,0,0,1,.88.18,1.15,1.15,0,0,1,0,1,4.15,4.15,0,0,1-1.06,1A71.24,71.24,0,0,0,11.17,29.61c-.57,1.31-2.23,2.16-3.45,3.14-.08.07-.91-.5-1.09-.91-1.11-2.43-2-5-3.22-7.34a18.44,18.44,0,0,0-3-3.89c-.68-.75-.57-1.14.2-1.56C3,17.73,4.17,18,5.74,20.28a29.26,29.26,0,0,1,1.58,2.78C7.81,24,8.25,25,8.65,25.76Z"/></g></g></svg>